<svg xmlns="http://www.w3.org/2000/svg" xmlns:xlink="http://www.w3.org/1999/xlink" width="2000" zoomAndPan="magnify" viewBox="0 0 1500 1499.999933" height="2000" preserveAspectRatio="xMidYMid meet" version="1.0"><defs><clipPath id="a850b42ff8"><path d="M 97.351562 150 L 750 150 L 750 802.648438 L 97.351562 802.648438 Z M 97.351562 150 " clip-rule="nonzero"/></clipPath><clipPath id="9057440765"><path d="M 423.675781 150 C 243.449219 150 97.351562 296.101562 97.351562 476.324219 C 97.351562 656.546875 243.449219 802.648438 423.675781 802.648438 C 603.898438 802.648438 750 656.546875 750 476.324219 C 750 296.101562 603.898438 150 423.675781 150 Z M 423.675781 150 " clip-rule="nonzero"/></clipPath><clipPath id="77e03d20e8"><path d="M 0.351562 0 L 653 0 L 653 652.648438 L 0.351562 652.648438 Z M 0.351562 0 " clip-rule="nonzero"/></clipPath><clipPath id="21c15e23eb"><path d="M 326.675781 0 C 146.449219 0 0.351562 146.101562 0.351562 326.324219 C 0.351562 506.546875 146.449219 652.648438 326.675781 652.648438 C 506.898438 652.648438 653 506.546875 653 326.324219 C 653 146.101562 506.898438 0 326.675781 0 Z M 326.675781 0 " clip-rule="nonzero"/></clipPath><clipPath id="de4785f575"><rect x="0" width="653" y="0" height="653"/></clipPath><clipPath id="ffa18f0681"><path d="M 97.351562 736.433594 L 750 736.433594 L 750 1389.082031 L 97.351562 1389.082031 Z M 97.351562 736.433594 " clip-rule="nonzero"/></clipPath><clipPath id="794dc1db8a"><path d="M 423.675781 736.433594 C 243.449219 736.433594 97.351562 882.53125 97.351562 1062.757812 C 97.351562 1242.980469 243.449219 1389.082031 423.675781 1389.082031 C 603.898438 1389.082031 750 1242.980469 750 1062.757812 C 750 882.53125 603.898438 736.433594 423.675781 736.433594 Z M 423.675781 736.433594 " clip-rule="nonzero"/></clipPath><clipPath id="26e3e4a6c7"><path d="M 0.351562 0.433594 L 653 0.433594 L 653 653.082031 L 0.351562 653.082031 Z M 0.351562 0.433594 " clip-rule="nonzero"/></clipPath><clipPath id="edb3ae3908"><path d="M 326.675781 0.433594 C 146.449219 0.433594 0.351562 146.53125 0.351562 326.757812 C 0.351562 506.980469 146.449219 653.082031 326.675781 653.082031 C 506.898438 653.082031 653 506.980469 653 326.757812 C 653 146.53125 506.898438 0.433594 326.675781 0.433594 Z M 326.675781 0.433594 " clip-rule="nonzero"/></clipPath><clipPath id="8e4151ff02"><rect x="0" width="653" y="0" height="654"/></clipPath><clipPath id="25b710c5c0"><path d="M 750 150 L 1402.648438 150 L 1402.648438 802.648438 L 750 802.648438 Z M 750 150 " clip-rule="nonzero"/></clipPath><clipPath id="5d0d71dce3"><path d="M 1076.324219 150 C 896.101562 150 750 296.101562 750 476.324219 C 750 656.546875 896.101562 802.648438 1076.324219 802.648438 C 1256.546875 802.648438 1402.648438 656.546875 1402.648438 476.324219 C 1402.648438 296.101562 1256.546875 150 1076.324219 150 Z M 1076.324219 150 " clip-rule="nonzero"/></clipPath><clipPath id="b0086bc94f"><path d="M 0 0 L 652.648438 0 L 652.648438 652.648438 L 0 652.648438 Z M 0 0 " clip-rule="nonzero"/></clipPath><clipPath id="1487b0da1e"><path d="M 326.324219 0 C 146.101562 0 0 146.101562 0 326.324219 C 0 506.546875 146.101562 652.648438 326.324219 652.648438 C 506.546875 652.648438 652.648438 506.546875 652.648438 326.324219 C 652.648438 146.101562 506.546875 0 326.324219 0 Z M 326.324219 0 " clip-rule="nonzero"/></clipPath><clipPath id="5f9d94ec51"><rect x="0" width="653" y="0" height="653"/></clipPath><clipPath id="89b785548d"><path d="M 750 736.433594 L 1402.648438 736.433594 L 1402.648438 1389.082031 L 750 1389.082031 Z M 750 736.433594 " clip-rule="nonzero"/></clipPath><clipPath id="5e77a72e41"><path d="M 1076.324219 736.433594 C 896.101562 736.433594 750 882.53125 750 1062.757812 C 750 1242.980469 896.101562 1389.082031 1076.324219 1389.082031 C 1256.546875 1389.082031 1402.648438 1242.980469 1402.648438 1062.757812 C 1402.648438 882.53125 1256.546875 736.433594 1076.324219 736.433594 Z M 1076.324219 736.433594 " clip-rule="nonzero"/></clipPath><clipPath id="2b69b8eda0"><path d="M 0 0.433594 L 652.648438 0.433594 L 652.648438 653.082031 L 0 653.082031 Z M 0 0.433594 " clip-rule="nonzero"/></clipPath><clipPath id="0dc226e5a9"><path d="M 326.324219 0.433594 C 146.101562 0.433594 0 146.53125 0 326.757812 C 0 506.980469 146.101562 653.082031 326.324219 653.082031 C 506.546875 653.082031 652.648438 506.980469 652.648438 326.757812 C 652.648438 146.53125 506.546875 0.433594 326.324219 0.433594 Z M 326.324219 0.433594 " clip-rule="nonzero"/></clipPath><clipPath id="5ebc27af86"><rect x="0" width="653" y="0" height="654"/></clipPath><clipPath id="b809688592"><path d="M 423.675781 410.105469 L 1076.324219 410.105469 L 1076.324219 1062.757812 L 423.675781 1062.757812 Z M 423.675781 410.105469 " clip-rule="nonzero"/></clipPath><clipPath id="beffa8c8cb"><path d="M 750 410.105469 C 569.777344 410.105469 423.675781 556.207031 423.675781 736.433594 C 423.675781 916.65625 569.777344 1062.757812 750 1062.757812 C 930.222656 1062.757812 1076.324219 916.65625 1076.324219 736.433594 C 1076.324219 556.207031 930.222656 410.105469 750 410.105469 Z M 750 410.105469 " clip-rule="nonzero"/></clipPath><clipPath id="36272e8035"><path d="M 0.675781 0.105469 L 653.324219 0.105469 L 653.324219 652.757812 L 0.675781 652.757812 Z M 0.675781 0.105469 " clip-rule="nonzero"/></clipPath><clipPath id="2d8e3f67a4"><path d="M 327 0.105469 C 146.777344 0.105469 0.675781 146.207031 0.675781 326.433594 C 0.675781 506.65625 146.777344 652.757812 327 652.757812 C 507.222656 652.757812 653.324219 506.65625 653.324219 326.433594 C 653.324219 146.207031 507.222656 0.105469 327 0.105469 Z M 327 0.105469 " clip-rule="nonzero"/></clipPath><clipPath id="deddfe917c"><rect x="0" width="654" y="0" height="653"/></clipPath></defs><g clip-path="url(#a850b42ff8)"><g clip-path="url(#9057440765)"><g transform="matrix(1, 0, 0, 1, 97, 150)"><g clip-path="url(#de4785f575)"><g clip-path="url(#77e03d20e8)"><g clip-path="url(#21c15e23eb)"><path fill="#ea580c" d="M 0.351562 0 L 653 0 L 653 652.648438 L 0.351562 652.648438 Z M 0.351562 0 " fill-opacity="1" fill-rule="nonzero"/></g></g></g></g></g></g><g clip-path="url(#ffa18f0681)"><g clip-path="url(#794dc1db8a)"><g transform="matrix(1, 0, 0, 1, 97, 736)"><g clip-path="url(#8e4151ff02)"><g clip-path="url(#26e3e4a6c7)"><g clip-path="url(#edb3ae3908)"><path fill="#ff751f" d="M 0.351562 0.433594 L 653 0.433594 L 653 653.082031 L 0.351562 653.082031 Z M 0.351562 0.433594 " fill-opacity="1" fill-rule="nonzero"/></g></g></g></g></g></g><g clip-path="url(#25b710c5c0)"><g clip-path="url(#5d0d71dce3)"><g transform="matrix(1, 0, 0, 1, 750, 150)"><g clip-path="url(#5f9d94ec51)"><g clip-path="url(#b0086bc94f)"><g clip-path="url(#1487b0da1e)"><path fill="#ff914d" d="M 0 0 L 652.648438 0 L 652.648438 652.648438 L 0 652.648438 Z M 0 0 " fill-opacity="1" fill-rule="nonzero"/></g></g></g></g></g></g><g clip-path="url(#89b785548d)"><g clip-path="url(#5e77a72e41)"><g transform="matrix(1, 0, 0, 1, 750, 736)"><g clip-path="url(#5ebc27af86)"><g clip-path="url(#2b69b8eda0)"><g clip-path="url(#0dc226e5a9)"><path fill="#ea580c" d="M 0 0.433594 L 652.648438 0.433594 L 652.648438 653.082031 L 0 653.082031 Z M 0 0.433594 " fill-opacity="1" fill-rule="nonzero"/></g></g></g></g></g></g><g clip-path="url(#b809688592)"><g clip-path="url(#beffa8c8cb)"><g transform="matrix(1, 0, 0, 1, 423, 410)"><g clip-path="url(#deddfe917c)"><g clip-path="url(#36272e8035)"><g clip-path="url(#2d8e3f67a4)"><path fill="#ea580c" d="M 0.675781 0.105469 L 653.324219 0.105469 L 653.324219 652.757812 L 0.675781 652.757812 Z M 0.675781 0.105469 " fill-opacity="1" fill-rule="nonzero"/></g></g></g></g></g></g></svg>